<svg style="position: absolute; left: -9999em; top: -9999em;" width="0" height="0" version="1.1" xmlns="http://www.w3.org/2000/svg" xmlns:xlink="http://www.w3.org/1999/xlink">
<defs>
<symbol id="close" viewBox="0 0 1024 1024">
	<title>close</title>
	<path class="path1" d="M511.949 2.394c-280.98 0-509.577 228.59-509.577 509.566s228.595 509.566 509.577 509.566 509.577-228.589 509.577-509.566-228.596-509.566-509.577-509.566zM511.949 993.41c-265.468 0-481.462-215.975-481.462-481.452s215.993-481.45 481.462-481.45 481.462 215.975 481.462 481.452-215.994 481.45-481.462 481.45zM646.577 382.051l-120.571 120.57-120.572-120.57-19.88 19.879 120.572 120.57-120.572 120.57 19.88 19.879 120.571-120.57 120.572 120.57 19.88-19.879-120.572-120.57 120.572-120.57-19.88-19.879z"></path>
</symbol>
</defs>
</svg>
