<?xml version="1.0" encoding="utf-8"?>
<!-- Generator: Adobe Illustrator 19.0.0, SVG Export Plug-In . SVG Version: 6.00 Build 0)  -->
<svg version="1.1" id="图形" xmlns="http://www.w3.org/2000/svg" xmlns:xlink="http://www.w3.org/1999/xlink" x="0px" y="0px"
	 viewBox="-127 -112 1024 1024" style="enable-background:new -127 -112 1024 1024;" xml:space="preserve">
<g id="形状_18">
	<g>
		<path d="M177,240.2l-41.7,333.3l82.7,10.3l41.7-333.3L177,240.2z M-115,703.7H93.3V120.3H-115V703.7z M-31.7,203.7H10v416.7h-41.7
			V203.7z M135,203.7h500v416.7H135v83.3h583.3V120.3H135V203.7z M843.4,328.6V287H760v83.3h41.7v83.3H760V537h83.3v-41.7H885V328.6
			H843.4z M510.3,240.2l-41.7,333.3l82.7,10.3L593,250.5L510.3,240.2z M343.7,240.2L302,573.5l82.7,10.3l41.7-333.3L343.7,240.2z"/>
	</g>
</g>
</svg>
