<?xml version="1.0" encoding="utf-8"?>
<!-- Generator: Adobe Illustrator 19.0.0, SVG Export Plug-In . SVG Version: 6.00 Build 0)  -->
<svg version="1.1" id="图形" xmlns="http://www.w3.org/2000/svg" xmlns:xlink="http://www.w3.org/1999/xlink" x="0px" y="0px"
	 viewBox="-127 -112 1024 1024" style="enable-background:new -127 -112 1024 1024;" xml:space="preserve">
<g id="账户总览1">
	<g>
		<path d="M852.3,208.1v-41.8c0-100.8-81.7-182.4-182.4-182.4H68.4C-32.3-16.2-114,65.5-114,166.3v467.5
			c0,100.8,81.7,182.4,182.4,182.4h601.5c100.8,0,182.4-81.7,182.4-182.4V592c23.4-0.4,31.7-32,31.7-32s0-298.9,0-320
			C884,220.2,856.3,209.5,852.3,208.1z M740.2,752H-2.4c-61.6,0-47.2,15.5-47.2-44.3V92.2c0-59.8-14.4-44.3,47.2-44.3h742.6
			c61.6,0,47.2-15.5,47.2,44.3v115.7H529.9c-135.9,2-161,128-161,128v64c0,0,0,23.3,0,64c-2,109.3,161,128,161,128s163,0,257.5,0
			v115.7C787.4,767.5,801.8,752,740.2,752z M819.6,495.9c0,0-8.4,32-32.2,32H562.1c-116.7,0-128.8-40.7-128.8-128
			c0,0-27.3-138,128.8-128c95.7,0,225.4,0,225.4,0s32.2,10.8,32.2,32C819.6,325.1,819.6,495.9,819.6,495.9z M532.3,431.5h59.6v-63.3
			h-59.6V431.5z"/>
	</g>
</g>
</svg>
