<?xml version="1.0" encoding="utf-8"?>
<!-- Generator: Adobe Illustrator 19.0.0, SVG Export Plug-In . SVG Version: 6.00 Build 0)  -->
<svg version="1.1" id="图形" xmlns="http://www.w3.org/2000/svg" xmlns:xlink="http://www.w3.org/1999/xlink" x="0px" y="0px"
	 viewBox="-127 -112 1024 1024" style="enable-background:new -127 -112 1024 1024;" xml:space="preserve">
<g id="Compound_Shape_2_">
	<g>
		<path d="M408.6,387l-28.8-14.3c-51.4-25.4-63.5-32.5-63.5-63.6c0-40.1,35.5-54.4,68.6-54.4c15.8,0,67.4,3.9,67.4,54.4
			c0,11.5,9.4,20.9,20.9,20.9s20.9-9.4,20.9-20.9c0-51.1-34.7-87.1-88.3-94.6v-25.1c0-11.5-9.4-20.9-20.9-20.9s-20.9,9.4-20.9,20.9
			v25.1c-54.3,7.4-89.5,43.4-89.5,94.6c0,58.2,36.4,76.2,86.8,101.1l28.8,14.3c51.4,25.3,63.5,32.5,63.5,63.7
			c0,49.9-52.6,53.7-68.7,53.7s-68.6-3.9-68.6-53.7c0-11.5-9.4-20.9-20.9-20.9s-20.9,9.4-20.9,20.9c0,50.8,35.3,86.7,89.5,94v25.1
			c0,11.5,9.4,20.9,20.9,20.9s20.9-9.4,20.9-20.9v-25.1c54.3-7.3,89.5-43.1,89.5-94C495.4,429.8,459,411.8,408.6,387z M385-103
			c-276.4,0-501.3,224.9-501.3,501.3S108.6,899.6,385,899.6s501.3-224.9,501.3-501.3S661.4-103,385-103z M385,857.8
			c-253.4,0-459.5-206.1-459.5-459.5S131.6-61.2,385-61.2s459.5,206.1,459.5,459.5C844.6,651.7,638.4,857.8,385,857.8z M385,22.3
			C177.7,22.3,9,191,9,398.3s168.7,376,376,376s376-168.7,376-376S592.3,22.3,385,22.3z M385,732.5
			c-184.3,0-334.2-149.9-334.2-334.2S200.7,64.1,385,64.1S719.2,214,719.2,398.3S569.3,732.5,385,732.5z"/>
	</g>
</g>
</svg>
