<?xml version="1.0" encoding="utf-8"?>
<!-- Generator: Adobe Illustrator 19.0.0, SVG Export Plug-In . SVG Version: 6.00 Build 0)  -->
<svg version="1.1" id="图形" xmlns="http://www.w3.org/2000/svg" xmlns:xlink="http://www.w3.org/1999/xlink" x="0px" y="0px"
	 viewBox="-127 -112 1024 1024" style="enable-background:new -127 -112 1024 1024;" xml:space="preserve">
<g id="Compound_Shape">
	<g>
		<path d="M610.7-50.9C476.1-50.9,333-20.5,333,35.8v278.4c-50.3-12-112.7-18.3-173.6-18.3c-134.6,0-277.7,30.4-277.7,86.7v86.7
			c0,30.9,43.2,53.9,104.3,68.5c0,0.3-0.2,0.6-0.2,0.9v52c0,14.9,10.8,27.8,28.8,38.7c-38.7,8.2-63.5,20.8-63.5,48v86.7
			c0,56.3,143.1,86.7,277.7,86.7s277.7-30.3,277.7-86.7v-14.4c19.6,9.7,52.6,14.4,103,14.4h1.1c134.6,0,277.7-30.4,277.7-86.7V35.8
			C888.3-20.5,745.3-50.9,610.7-50.9z M159.4,330.6c154.9,0,240.5,36.5,243,52c-2.4,15.6-88,52.1-243,52.1s-240.5-36.5-242.9-52
			C-81.1,367.1,4.5,330.6,159.4,330.6z M258.5,556.8c-25.1,0-47.5-0.5-67.8-1.4c108.5-3.7,214.7-26.8,240.4-67.1
			c15.7,2,37.3,4.6,60.7,7.1c1.5,2.5,3.4,4.8,6.1,6.3c6.8,3.8,8.6,14.1,8.6,19.1C501.9,532.6,435,556.8,258.5,556.8z M506.5,561.5
			v29.2c0,14.3-69.4,52-225.6,52c-148,0-254.3-34.6-260.3-52v-28.6c41.8,19.5,121.1,29.4,237.9,29.4
			C380.8,591.5,463.6,581.4,506.5,561.5z M3.2,504c-2.2,0-4.2,0.5-6.1,1.2c-51.6-11.8-79.4-27.2-80.7-35.9v-43.2
			c50.5,28.3,148.7,43.2,243,43.2c94.2,0,192.4-14.9,243-43.2v43.1c-2.4,15.6-88,52.1-243,52.1c-57.9,0-106.2-5.1-144-12.3
			C12.3,506,8,504,3.2,504z M20.6,663.7v13.8c0,6.7,2.2,12.9,5.9,18.9c-22.1-7.1-36.5-14.2-40.4-19.9
			C-13,675.3-7.2,669.7,20.6,663.7z M471.8,764.1c-2.4,15.6-88,52.1-243,52.1s-240.5-36.5-243-52v-46.8
			c58.4,28.7,185.5,46.8,289.9,46.8c1.8,0,3.6,0,5.3,0V764c5.8,0.1,11.5,0.2,17.3,0.2c60.8,0,123.2-6.3,173.6-18.3v18.2H471.8z
			 M298.3,729.5c-155,0-240.5-36.5-243-52v-30.1c61.4,20.5,152.4,30.1,225.6,30.1c5.8,0,11.6-0.1,17.4-0.2v0.2
			c94.2,0,192.4-14.9,243-43.2v43.1C538.8,693,453.3,729.5,298.3,729.5z M853.6,677.4c-2.4,15.6-88,52.1-244.6,52.1h-1
			c-36.7,0-58.6-2.8-71.8-5.8c24.7-12.6,39.7-28,39.7-46.2v-34.4c6.2,0,12.7-0.1,18.9-0.1l15.8-0.1c94.2,0,192.4-14.9,243-43.2
			L853.6,677.4L853.6,677.4z M853.6,556c-2.4,15.6-88,52.1-243,52.1l-16.1,0.1c-6.1,0.1-12.5,0.1-18.6,0.1v-17.6
			c0-24.8-16.8-37.9-34.7-46.2v-23.2c0-6.7-1.1-14.2-3.7-21.5c27.9,2.4,54.5,4.1,73.1,4.1c94.2,0,192.4-14.9,243-43.2V556z
			 M853.6,417.3c-2.4,15.6-88,52.1-243,52.1c-39.9,0-126.7-9.1-173.6-15.1v-71.6c0-7-2.2-13.7-6.4-19.9
			c51.3,13,116.5,19.9,179.9,19.9c94.2,0,192.4-14.9,243-43.2L853.6,417.3L853.6,417.3z M853.6,295.9c-2.4,15.6-88,52.1-243,52.1
			s-240.5-36.5-243-52v-95.2c50.5,28.3,148.7,43.2,243,43.2c94.2,0,192.4-14.9,243-43.2V295.9z M853.6,157.1
			c-2.4,15.6-88,52.1-243,52.1s-240.5-36.5-243-52V79.3c50.5,28.3,148.7,43.2,243,43.2c94.2,0,192.4-14.9,243-43.2V157.1z
			 M610.7,87.8c-155,0-240.5-36.5-243-51.9c2.4-15.6,88.1-52.1,243-52.1s240.5,36.5,243,52C851.2,51.3,765.6,87.8,610.7,87.8z"/>
	</g>
</g>
</svg>
