<?xml version="1.0" encoding="utf-8"?>
<!-- Generator: Adobe Illustrator 19.0.0, SVG Export Plug-In . SVG Version: 6.00 Build 0)  -->
<svg version="1.1" id="图形" xmlns="http://www.w3.org/2000/svg" xmlns:xlink="http://www.w3.org/1999/xlink" x="0px" y="0px"
	 viewBox="-127 -112 1024 1024" style="enable-background:new -127 -112 1024 1024;" xml:space="preserve">
<path d="M510.8,834.8L116.4,583.9l33.8-53.1l297.7,189.4V79.9L150.2,269.3l-33.8-53.1L510.8-34.7V834.8z"/>
<path d="M337.3,247.2l32.4,53.9l-157.3,94.5L180,341.7L337.3,247.2z"/>
<path d="M70.4,588.8h-188.7V211.3H70.4V588.8z M-55.4,525.9H7.5V274.2h-62.9V525.9z"/>
<path d="M573.7,588.8v-62.9c69.4,0,125.8-56.4,125.8-125.8s-56.4-125.8-125.8-125.8v-62.9c104.1,0,188.7,84.6,188.7,188.7
	C762.4,504.1,677.8,588.8,573.7,588.8z"/>
<path d="M573.7,714.6v-62.9c138.8,0,251.6-112.9,251.6-251.6S712.4,148.4,573.7,148.4V85.5c173.4,0,314.6,141.1,314.6,314.6
	C888.2,573.5,747.1,714.6,573.7,714.6z"/>
<path d="M573.7,463V337.1c34.7,0,62.9,28.2,62.9,62.9C636.6,434.8,608.4,463,573.7,463z"/>
</svg>
