<?xml version="1.0" encoding="utf-8"?>
<!-- Generator: Adobe Illustrator 19.0.0, SVG Export Plug-In . SVG Version: 6.00 Build 0)  -->
<svg version="1.1" id="图形" xmlns="http://www.w3.org/2000/svg" xmlns:xlink="http://www.w3.org/1999/xlink" x="0px" y="0px"
	 viewBox="-127 -112 1024 1024" style="enable-background:new -127 -112 1024 1024;" xml:space="preserve">
<g id="形状_27_拷贝">
	<g>
		<path d="M-111.8,57.9v703.8h993.6V57.9H-111.8z M799,678.9H-29V140.7h828V678.9z M136.6,596.1h496.8v-82.8H136.6V596.1z
			 M136.6,223.5H53.8v82.8h82.8V223.5z M343.6,223.5h-82.8v82.8h82.8V223.5z M509.2,223.5h-82.8v82.8h82.8L509.2,223.5L509.2,223.5z
			 M716.2,223.5h-82.8v82.8h82.8V223.5z M136.6,347.7H53.8v82.8h82.8V347.7z M343.6,347.7h-82.8v82.8h82.8V347.7z M509.2,347.7
			h-82.8v82.8h82.8L509.2,347.7L509.2,347.7z M716.2,347.7h-82.8v82.8h82.8V347.7z"/>
	</g>
</g>
</svg>
