<?xml version="1.0" encoding="utf-8"?>
<!-- Generator: Adobe Illustrator 19.0.0, SVG Export Plug-In . SVG Version: 6.00 Build 0)  -->
<svg version="1.1" id="图形" xmlns="http://www.w3.org/2000/svg" xmlns:xlink="http://www.w3.org/1999/xlink" x="0px" y="0px"
	 viewBox="-127 -112 1024 1024" style="enable-background:new -127 -112 1024 1024;" xml:space="preserve">
<style type="text/css">
	.st0{fill:#272636;}
</style>
<g id="羊_xA0_剪贴路径">
	<g>
		<path class="st0" d="M432.8,132.7h95.4c8.8,0,214.7-1.6,214.7-139.1c0-53.1-50.1-92.1-120.8-92.8c-78.7,0-181.7,53.5-212.7,204.2
			c-1.4,6.8,0.4,13.9,4.9,19.3C418.9,129.6,425.7,132.7,432.8,132.7z M623.4-52.8C623.4-52.8,623.4-52.8,623.4-52.8
			c35.7,0.4,71.8,16.4,71.8,46.4c0,91.4-165.3,92.8-167,92.8h-65.1C493.6-15.6,563.6-52.8,623.4-52.8z M146.6,179.1
			c-13.2,0-23.9,10.4-23.9,23.2c0,12.8,10.7,23.2,23.9,23.2h477.1c13.2,0,23.9-10.4,23.9-23.2c0-12.8-10.7-23.2-23.9-23.2H146.6z
			 M242,132.7h95.4c0.2,0,0.3,0,0.5,0c13.2,0,23.9-10.4,23.9-23.2c0-3.2-0.7-6.3-1.9-9.1C327.7-46.8,226.1-99.2,146.4-99.2
			c0,0,0,0,0,0c-69,0.7-119,39.7-119,92.8C27.3,131.1,233.2,132.7,242,132.7z M148.1-52.8c58.6,0,128.5,37.2,158.9,139.1H242
			c-1.7,0-167-1.1-167-92.8C75-36.4,111.1-52.4,148.1-52.8z M837.7,776.6C802,633.4,631.2,303.1,620.9,284.2
			c-4.1-7.6-12.3-12.3-21.1-12.3H170.4c-8.8,0-17,4.8-21.1,12.3C139,303.1-31.7,633.4-67.5,776.6c-0.4,1.8-0.7,3.6-0.7,5.5v23.2
			c0,48.5,45.5,92.8,95.4,92.8H743c49.9,0,95.4-44.2,95.4-92.8V782C838.4,780.2,838.1,778.4,837.7,776.6z M790.7,805.2
			c0,23-24.1,46.4-47.7,46.4H27.3c-23.6,0-47.7-23.4-47.7-46.4v-20.4c33.3-127.5,165.6-393,205.3-466.6h400.6
			c39.7,73.7,172,339.1,205.3,466.6V805.2z M528.5,445.3L480.5,410l-95.4,115.9l-23.9-23.2c-12.6-13.6-72.2-70.5-95.4-92.8
			l-33.3,35.8c19.8,19.6,60.5,61.6,74.2,79.9h-117l4.6,46.7h167v69.6H218.1v46.4h143.1v139.1H409V688.2h119.3v-46.4H409v-69.6h167
			v-46.4H456.7L528.5,445.3z"/>
	</g>
</g>
</svg>
