<?xml version="1.0" encoding="utf-8"?>
<!-- Generator: Adobe Illustrator 19.0.0, SVG Export Plug-In . SVG Version: 6.00 Build 0)  -->
<svg version="1.1" id="图层_1" xmlns="http://www.w3.org/2000/svg" xmlns:xlink="http://www.w3.org/1999/xlink" x="0px" y="0px"
	 viewBox="0 0 1024 1024" style="enable-background:new 0 0 1024 1024;" xml:space="preserve">
<g id="形状_1_拷贝_2">
	<g id="XMLID_52_">
		<path id="XMLID_53_" d="M487,740.9c-41.7,0-89,23.8-89,72.3c0,44.7,45.4,71.3,85.3,71.3c39.9,0,90.8-22.8,90.8-70.3
			C574.1,767.5,526.9,740.9,487,740.9z M510.1,8.5c-277.3,0-503,225.6-503,502.9c0,277.3,225.6,502.9,503,502.9
			c277.3,0,503-225.6,503-502.9C1013,234.1,787.4,8.5,510.1,8.5z M510.1,968.2c-251.9,0-456.8-204.9-456.8-456.8
			c0-251.9,204.9-456.8,456.8-456.8c251.9,0,456.8,204.9,456.8,456.8C966.9,763.3,762,968.2,510.1,968.2z M669.7,194.3
			C624.2,161,564,150.6,509.3,150.6c-79.7,0-209.5,38-209.5,139.7c0,37.1,30.6,57.1,64,57.1c19.4,0,40.8-5.7,54.7-20
			c15.8-16.2,13.9-28.5,13.9-49.4c-0.9-20,8.3-44.5,24.1-58.7c12.9-11.5,95.5-14,116.1-8.8c50.1,12.7,82.5,56.1,82.5,111.2
			c0,36.1-7.4,71.3-28.8,101.7c-21.3,30.4-42.6,42.7-74.1,60.8c-42.6,23.8-115.1,24.7-116,75.1V603c0,42.8-5.6,77.9,48.2,77.9
			c39,0,39.9-28.5,39.9-59c0-32.3,0.9-50.3,31.5-63.6c47.3-21.9,88-38.1,127-74.2c38-35.2,62.1-87.5,62.1-139.7
			C744.7,284.6,717.8,229.4,669.7,194.3z"/>
	</g>
</g>
</svg>
