<?xml version="1.0" encoding="utf-8"?>
<!-- Generator: Adobe Illustrator 19.0.0, SVG Export Plug-In . SVG Version: 6.00 Build 0)  -->
<svg version="1.1" id="图形" xmlns="http://www.w3.org/2000/svg" xmlns:xlink="http://www.w3.org/1999/xlink" x="0px" y="0px"
	 viewBox="-127 -112 1024 1024" style="enable-background:new -127 -112 1024 1024;" xml:space="preserve">
<g id="形状_2">
	<g>
		<path d="M459.9,529.2l-15,51.6l104.9,36.9l22.5,213.9H-49.6l28.4-213.9l106.5-36.9l-15-51.6L-72,573.3l-45,317.2h756.7
			l-37.5-317.2L459.9,529.2z M261.3,462.8c68.7,0,131.7-24.2,180.5-64.5c40,39.8,95.4,64.5,156.7,64.5
			c121.9,0,220.7-97.5,220.7-217.8S720.5,27.1,598.6,27.1c-33.5,0-65.2,7.4-93.7,20.6C456.2-34.9,365.4-90.5,261.3-90.5
			C105.9-90.5-20,33.3-20,186.1S105.9,462.8,261.3,462.8z M542.6,186.1c0-29.4-4.7-57.8-13.3-84.4c21-9.9,44.5-15.5,69.3-15.5
			c88.8,0,160.8,71,160.8,158.7s-72,158.7-160.8,158.7c-45.1,0-85.9-18.3-115.1-47.8C520.5,308.8,542.6,250.1,542.6,186.1z
			 M261.3-31.3C383.2-31.3,482,66,482,186.1s-98.8,217.5-220.7,217.5S40.6,306.2,40.6,186.1S139.4-31.3,261.3-31.3z M699.7,824.2
			H887l-37.5-265.6l-142.4-36.9l-15,59l97.4,29.5l30,154.9l-119.9,7.4v51.7H699.7z"/>
	</g>
</g>
</svg>
