<?xml version="1.0" encoding="utf-8"?>
<!-- Generator: Adobe Illustrator 19.0.0, SVG Export Plug-In . SVG Version: 6.00 Build 0)  -->
<svg version="1.1" id="图形" xmlns="http://www.w3.org/2000/svg" xmlns:xlink="http://www.w3.org/1999/xlink" x="0px" y="0px"
	 viewBox="-127 -112 1024 1024" style="enable-background:new -127 -112 1024 1024;" xml:space="preserve">
<style type="text/css">
	.st0{fill:#272636;}
</style>
<path class="st0" d="M383.5,40.8c11.3,0,21.1,4.6,29.5,13.8l355.5,395.6c8.2,9.3,12.5,20.1,12.5,32.8c0,12.7-4.2,23.5-12.5,32.7
	c-8.2,9.2-18.1,13.8-29.4,13.8H550.8v325.9c0,12.7-4.1,23.5-12.3,32.8c-8.3,9.3-18.1,13.8-29.5,13.8H258.1
	c-11.3,0-21.1-4.6-29.4-13.8c-8.2-9.3-12.5-20.1-12.5-32.8V529.5l-188.2,0c-11.3,0-21.1-4.6-29.5-13.8c-8.3-9.1-12.4-20.1-12.3-32.7
	c0-12.7,4.2-23.5,12.3-32.8L354,54.7C362.3,45.4,372.2,40.8,383.5,40.8L383.5,40.8z"/>
<path class="st0" d="M887-32.1c0,40.3-30.8,72.9-68.8,72.9H-51.2c-38-0.1-68.8-32.7-68.8-72.9l0,0c0-40.3,30.8-72.9,68.8-72.9h869.5
	C856.2-105,887-72.3,887-32.1L887-32.1z"/>
</svg>
